/* XPM */
static char *_09593dbc41648faed39618573a2ea9dXYxDqsi79rW0DrrU[] = {
/* columns rows colors chars-per-pixel */
"16 16 62 1 ",
"  c None",
". c #FF5022",
"X c #FF5023",
"o c #FF5124",
"O c #FF5125",
"+ c #FF5327",
"@ c #FF5529",
"# c #FF562B",
"$ c #FF572C",
"% c #FF592E",
"& c #FF5C32",
"* c #FF5D33",
"= c #FF6139",
"- c #FF633A",
"; c #FF653D",
": c #FF6841",
"> c #FF6B46",
", c #FF6D47",
"< c #FF6E48",
"1 c #FF714C",
"2 c #FF7552",
"3 c #FF7653",
"4 c #FF7754",
"5 c #FF7F5F",
"6 c #FF805F",
"7 c #FF8262",
"8 c #FF8364",
"9 c #FF8465",
"0 c #FF8565",
"q c #FF8869",
"w c #FF886A",
"e c #FF8A6B",
"r c #FF9174",
"t c #FF9175",
"y c #FF9377",
"u c #FF9579",
"i c #FF9A80",
"p c #FF9C83",
"a c #FF9E84",
"s c #FF9E85",
"d c #FF9F86",
"f c #FFA189",
"g c #FFA28A",
"h c #FFA28B",
"j c #FFA38B",
"k c #FFA48C",
"l c #FFA48D",
"z c #FFA68F",
"x c #FFA690",
"c c #FFA791",
"v c #FFA891",
"b c #FFA992",
"n c #FFAA94",
"m c #FFAB96",
"M c #FFAC97",
"N c #FFAD98",
"B c #FFAF9A",
"V c #FFB09C",
"C c #FFB19E",
"Z c #FFB29E",
"A c #FFB6A4",
"S c #FFC0B0",
/* pixels */
" XXXXXXXXXXXXXX ",
"XXXXXXXXXXXXXXXX",
"XXX6gggg5XXX*5XX",
"XXXnXXXXzXXXs=XX",
"XXXSVV<XlXX.z%XX",
"XXXBsx3XgoX.x@XX",
"XXXvXXXX58o%AXXX",
"XXX7XXXXXtvM;XXX",
"XX8Bxntooynv:XXX",
"XXXwo.3ll4X+B&XX",
"XXXvXX.pgo.X;tXX",
"XXXnXX.wVoXX19XX",
"XXXB&=iw7s@,V+XX",
"XX.8gu>oo<se+oXX",
"XXXXXXXX.XXXXXX.",
" XXXXXXXXXXXXXX "
};
